<?xml version="1.0" encoding="utf-8"?>
<!-- Generator: Adobe Illustrator 14.0.0, SVG Export Plug-In . SVG Version: 6.00 Build 43363)  -->
<!DOCTYPE svg PUBLIC "-//W3C//DTD SVG 1.1//EN" "http://www.w3.org/Graphics/SVG/1.1/DTD/svg11.dtd">
<svg version="1.1" id="logo_with_banner" xmlns="http://www.w3.org/2000/svg" xmlns:xlink="http://www.w3.org/1999/xlink" x="0px"
	 y="0px" width="162px" height="162px" viewBox="0 0 162 162" enable-background="new 0 0 162 162" xml:space="preserve">
<ellipse transform="matrix(-0.8472 0.5313 -0.5313 -0.8472 192.7347 104.5713)" fill="#47239B" cx="81.329" cy="80.003" rx="88.241" ry="54.608"/>
<ellipse transform="matrix(-0.8533 0.5214 -0.5214 -0.8533 191.9167 106.3208)" fill="#FFFFFF" cx="81.002" cy="80.158" rx="79.165" ry="52.744"/>
<path fill="#C1D731" d="M31.998,115.787c-0.081-0.057-0.165-0.1-0.244-0.166c-1.462-1.222-2.659-2.292-4.551-2.729
	c-2.263-0.521-4.533-0.988-6.696-1.853c-2.232-0.893-4.995-2.999-4.03-5.81c0.399-1.162,1.148-2.099,2.082-2.883
	c-3.224-3.224-6.447-6.447-9.671-9.671c-1.556,8.53-0.935,16.771,2.169,24.091l19.368,19.368c7.732,3.577,16.963,5.282,26.978,5.056
	C48.934,132.724,40.466,124.256,31.998,115.787z"/>
<path fill="#C1D731" d="M70.945,112.484c-3.532,1.024-7.088,2.106-10.562,3.295c-1.754,0.599-3.705,1.396-5.655,1.785l21.182,21.182
	c5.313-1.252,10.707-2.99,16.093-5.204C84.983,126.522,77.964,119.504,70.945,112.484z"/>
<path fill="#C1D731" d="M33.403,89.452c3.649-1.989,4.577-4.691,5.455-8.625c0.026-0.119,0.071-0.216,0.107-0.324
	c-5.63-5.63-11.26-11.26-16.89-16.89c-3.173,4.35-5.856,8.812-7.988,13.3c0,0.002-0.001,0.004-0.001,0.007l15.083,15.083
	C30.481,90.992,32.021,90.205,33.403,89.452z"/>
<path fill="#C1D731" d="M52.107,66.828c0.339-1.609,0.24-3.287,1.177-4.717c0.985-1.503,3.306-1.095,3.875-1.875
	c0.403-0.553,0.903-0.904,1.435-1.102L42.359,42.898c-3.921,3.064-7.57,6.293-10.88,9.667c6.125,6.125,12.25,12.25,18.375,18.375
	C50.604,69.6,51.814,68.216,52.107,66.828z"/>
<path fill="#C1D731" d="M99.61,100.149c-2.79,0.945-5.528,2.879-8.283,3.948c-1.987,0.771-3.935,1.618-5.901,2.414l20.288,20.288
	c0.933-0.533,1.864-1.07,2.79-1.636c3.36-2.054,6.557-4.24,9.592-6.529L99.61,100.149z"/>
<path fill="#C1D731" d="M151.584,45.17c-0.799-2.176-1.803-4.279-3.031-6.29c-4.292-7.023-10.779-12.174-18.709-15.45
	C137.091,30.676,144.337,37.923,151.584,45.17z"/>
<path fill="#C1D731" d="M145.322,58.987c-0.45,2.54-1.216,5.009-1.747,7.548c-0.661,3.16-1.396,6.338-3.083,9.125
	c-0.069,0.115-0.148,0.215-0.223,0.321c2.519,2.519,5.037,5.038,7.557,7.557c2.664-5.565,4.478-11.167,5.402-16.644
	C150.593,64.258,147.958,61.622,145.322,58.987z"/>
<path fill="#C1D731" d="M114.048,48.857c5.22,1.575,7.763,5.124,13.794,3.766c3.201-0.721,6.473-0.94,9.702-1.415
	c-10.687-10.688-21.374-21.375-32.062-32.063c-6.268,0.077-12.842,0.9-19.55,2.498c9.003,9.002,18.005,18.005,27.008,27.008
	C113.311,48.684,113.68,48.747,114.048,48.857z"/>
<path fill="#C1D731" d="M68.921,47.965c2.61,1.488,5.694,1.346,8.261,2.81c3.646,2.079,5.975,2.55,9.866,0.732
	c1.78-0.832,3.542-1.641,5.377-2.293L70.014,26.803c-4.999,2.057-9.989,4.505-14.896,7.4l13.699,13.699
	C68.853,47.923,68.885,47.944,68.921,47.965z"/>
<path fill="#C1D731" d="M128.138,84.927c-2.812,1.663-5.728,3.132-8.376,5.066c-1.629,1.189-3.277,2.302-5.14,3.093
	c-0.149,0.063-0.305,0.112-0.459,0.163l15.424,15.424c3.868-3.841,7.313-7.859,10.32-11.977L128.138,84.927z"/>
<g>
	<defs>
		<rect id="SVGID_1_" x="-100.499" y="-102.492" width="367.985" height="369.992"/>
	</defs>
	<clipPath id="SVGID_2_">
		<use xlink:href="#SVGID_1_"  overflow="visible"/>
	</clipPath>
	<path clip-path="url(#SVGID_2_)" fill="#F4EA63" d="M14.68,112.539c1.272,0.361,2.616,0.446,3.917,0.655
		c1.411,0.226,2.789,0.624,4.19,0.888c1.957,0.368,3.849,1.048,5.589,2.021c1.776,0.994,3.255,2.321,4.847,3.57
		c0.961,0.751,1.979,1.438,3.111,1.903c2.038,0.841,4.397,0.718,6.546,0.551c2.074-0.16,4.103-0.4,6.117-0.931
		c6.192-1.633,12.462-2.872,18.585-4.773c4.988-1.549,9.871-3.415,14.709-5.39c1.4-0.572,2.802-1.154,4.197-1.739
		c2.828-1.182,5.659-2.357,8.438-3.659c1.586-0.744,3.16-1.524,4.729-2.298c6.16-3.03,12.262-6.162,18.259-9.511
		c1.729-0.966,3.454-1.946,5.171-2.938c1.729-0.997,3.458-2,5.146-3.068c3.973-2.516,8.128-4.833,11.873-7.69
		c1.002-0.765,1.905-1.758,2.753-2.692c1.828-2.017,2.491-4.417,2.709-7.096c0.234-2.883,0.209-5.748,0.543-8.635
		c0.256-2.253,1.021-4.269,2.552-5.958c0.711-0.785,1.611-1.561,2.062-2.539c0.239-0.517,0.34-1.141,0.241-1.707
		c-0.124-0.724-0.782-0.797-1.027-1.425c-1.047,4.298-5.1,6.948-8.08,9.852c-1.017,0.99-2.034,1.981-3.133,2.877
		c-3.221,2.629-6.457,5.153-9.939,7.425c-3.607,2.351-7.3,4.571-11.029,6.72c-4.287,2.471-8.604,4.884-13.044,7.063
		c-1.291,0.634-2.592,1.252-3.898,1.854c-1.916,0.879-3.83,1.775-5.755,2.642c-7.561,3.398-15.383,6.233-23.219,8.916
		c-2.264,0.774-4.533,1.528-6.807,2.264c-4.891,1.585-9.789,3.148-14.722,4.597c-4.917,1.443-9.872,2.729-14.852,3.933
		c-2.87,0.692-5.744,1.368-8.619,2.045c-2.785,0.652-5.586,1.252-8.422,1.64c-1.548,0.212-3.11,0.335-4.671,0.301
		C14,112.211,14.417,112.466,14.68,112.539"/>
</g>
<g>
	<defs>
		<rect id="SVGID_3_" x="-99.486" y="-103.001" width="367.986" height="369.993"/>
	</defs>
	<clipPath id="SVGID_4_">
		<use xlink:href="#SVGID_3_"  overflow="visible"/>
	</clipPath>
	<path clip-path="url(#SVGID_4_)" fill="#F3EB64" d="M63.546,47.992c-0.043,0.045-0.093,0.086-0.148,0.125
		c-0.567,0.376-1.328,0.092-1.952,0.187c-1.798,0.267-1.435,2.865-1.436,4.099c-0.004,3.448-3.516,4.352-6.122,5.367
		c-1.257,0.49-2.569,1.141-2.875,2.582c-0.34,1.616,0.225,3.293-0.364,4.881c-0.372,1-1.109,1.777-1.941,2.41
		c-1.792,1.364-3.951,2.062-5.834,3.261c-2.436,1.553-4.297,3.657-5.003,6.514c-0.189,0.773-0.319,1.57-0.406,2.365
		c-0.286,2.606-1.049,4.651-2.985,6.476c-2.693,2.534-6.243,4.188-8.524,7.15c-1.672,2.174-3.6,5.975-1.833,8.598
		c3.996,5.927,24.413-1.888,29.243-3.379c14.387-4.451,19.312-6.774,31.602-11.393c3.824-1.437,14.373-6.094,18.122-7.714
		c9.755-4.206,14.869-7.691,23.894-13.308c3.844-2.391,14.661-8.844,9.231-14.766c-1.229-1.344-3.31-1.473-5.004-1.414
		c-1.51,0.052-2.997,0.364-4.467,0.701c-1.311,0.297-2.729,0.59-3.965-0.118c-1.011-0.578-1.739-1.541-2.646-2.255
		c-1.83-1.443-4.279-2.174-6.587-1.836c-1.675,0.246-3.325,0.708-4.926,1.253c-1.229,0.42-2.386,1.019-3.618,1.424
		c-0.523,0.173-0.641-0.233-0.865-0.61c-0.284-0.47-0.618-0.903-1.014-1.279c-0.788-0.746-1.778-1.229-2.814-1.513
		c-1.559-0.426-3.394-0.329-4.956-0.006c-1.362,0.281-2.641,1.059-3.889,1.617c0,0-1.408,0.63-1.458,0.653
		c-1.405,0.625-2.817,1.237-4.229,1.851c-1.198,0.522-2.417,0.916-3.636,0.219c-1.247-0.714-1.953-2.034-3.184-2.732
		c-0.55-0.312-1.255-0.396-1.895-0.469c-1.228-0.139-2.489-0.036-3.637,0.434c-0.631,0.259-1.351-0.334-1.81-0.713
		c-0.511-0.423-0.94-0.954-1.369-1.458c-0.948-1.113-1.903-2.494-1.363-4.029c0.377-1.063,1.369-1.763,2.345-2.222
		c0.188-0.088,1.07-0.306,0.933-0.63c-0.095-0.224-0.941-0.196-1.143-0.204c-2.143-0.072-4.292,0.269-5.729,2.029
		c-0.814,0.998-1.161,1.912-1.14,3.204c0.015,0.957-0.244,1.856-0.311,2.803C63.801,46.716,63.975,47.54,63.546,47.992"/>
</g>
<g>
	<defs>
		<rect id="SVGID_5_" x="-100.499" y="-102.492" width="367.985" height="369.992"/>
	</defs>
	<clipPath id="SVGID_6_">
		<use xlink:href="#SVGID_5_"  overflow="visible"/>
	</clipPath>
	<path clip-path="url(#SVGID_6_)" fill="#FFFFFF" d="M36.044,116.283c-0.083,0.142-0.066,0.31,0.132,0.501
		c0.427,0.414,1.162,0.422,1.701,0.292c0.425-0.099,0.831-0.251,1.264-0.332c0.442-0.083,0.883-0.164,1.32-0.28
		c0.463-0.12,0.955-0.199,1.405-0.326l2.029-0.569l2.578-0.816c0,0,2.407-0.999,2.413-1.001c1.229-0.508,2.522-0.89,3.75-1.426
		c0.829-0.359,1.678-0.666,2.509-1.021c0.94-0.398,1.776-1.028,2.719-1.439c0.703-0.301,1.316-0.705,1.996-1.051
		c0.202-0.104,0.668-0.311,0.675-0.579c0.014-0.494-0.796-0.215-1.014-0.127c-0.426,0.165-0.829,0.378-1.236,0.582
		c-0.671,0.341-1.356,0.66-2.038,0.981c-0.979,0.467-2.049,0.82-3.062,1.223c-0.889,0.354-1.77,0.689-2.679,0.99
		c-1.697,0.559-3.371,1.21-5.083,1.711c-0.744,0.216-1.472,0.462-2.223,0.667c-0.832,0.226-1.633,0.547-2.464,0.781
		c-1.153,0.326-2.342,0.413-3.507,0.667C36.945,115.773,36.235,115.962,36.044,116.283"/>
</g>
<g>
	<defs>
		<rect id="SVGID_7_" x="-100.499" y="-102.492" width="367.985" height="369.992"/>
	</defs>
	<clipPath id="SVGID_8_">
		<use xlink:href="#SVGID_7_"  overflow="visible"/>
	</clipPath>
	<path clip-path="url(#SVGID_8_)" fill="#FFFFFF" d="M30.827,114.838l0.352,0.012l0.918,0.024l1.274-0.158l0.897-0.11l0.815-0.115
		l1.931-0.354l1.606-0.391l2.452-0.613l2.726-0.771l1.859-0.711l2.156-0.703l1.583-0.5l1.833-0.712l2.377-0.916l1.971-0.816
		l2.08-0.896l0.823-0.386l0.933-0.491l0.498-0.368l0.003-0.19l-0.27-0.007c0,0-0.052-0.027-0.27-0.007s-0.352,0.073-0.545,0.149
		c-0.191,0.075-0.631,0.281-0.631,0.281l-0.713,0.333l-3.438,1.131l-1.942,0.791l-2.186,0.782l-2.24,0.785l-2.425,0.667
		l-2.588,0.662l-2.125,0.569l-2.288,0.538l-2.259,0.483l-1.607,0.338l-1.518,0.149l-1.355,0.124l-0.816,0.169l-0.277,0.264
		l-0.008,0.244l-0.007,0.301l0.127,0.246L30.827,114.838z"/>
</g>
<g>
	<defs>
		<rect id="SVGID_9_" x="-100.499" y="-102.492" width="367.985" height="369.992"/>
	</defs>
	<clipPath id="SVGID_10_">
		<use xlink:href="#SVGID_9_"  overflow="visible"/>
	</clipPath>
	<path clip-path="url(#SVGID_10_)" fill="#FFFFFF" d="M25.718,112.399c0.157,0.225,0.479,0.397,0.871,0.401
		c0.879,0.006,1.804-0.19,2.676-0.31c2.167-0.286,4.35-0.929,6.472-1.45c1.946-0.473,3.892-0.946,5.804-1.541
		c2.296-0.712,4.611-1.359,6.925-2.01c2.212-0.62,4.418-1.435,6.555-2.271c1.537-0.604,3.06-1.236,4.576-1.884
		c0.897-0.384,1.975-0.645,2.718-1.285c-0.385-1.103-3.995,0.998-4.758,1.275c-1.594,0.578-3.186,1.173-4.81,1.657
		c-2.02,0.604-4.035,1.225-6.065,1.801l-3.84,1.089l-5.191,1.36l-5.249,1.357c0,0-2.707,0.427-2.758,0.435
		c-1.131,0.188-2.296,0.175-3.405,0.493C25.596,111.701,25.503,112.097,25.718,112.399"/>
</g>
<g>
	<defs>
		<rect id="SVGID_11_" x="-100.499" y="-102.492" width="367.985" height="369.992"/>
	</defs>
	<clipPath id="SVGID_12_">
		<use xlink:href="#SVGID_11_"  overflow="visible"/>
	</clipPath>
	<path clip-path="url(#SVGID_12_)" fill="#FFFFFF" d="M121.584,81.132c0.59-0.262,1.222-0.736,1.526-0.93l1.987-1.264l2.596-1.672
		l1.705-1.143l1.906-1.264l2.15-1.47l1.26-0.938l1.862-1.468l1.057-0.979c1.274-1.283,2.647-2.518,3.732-3.973
		c1.365-1.831,2.609-3.751,3.715-5.752c0.396-0.713,1.419-1.715,1.084-2.611c-0.424,0.198-0.487,0.587-0.634,0.993
		c-0.205,0.563-0.538,1.024-0.871,1.516c-0.521,0.762-1.079,1.497-1.594,2.261c-0.766,1.136-1.681,2.16-2.678,3.097
		c-1.049,0.985-2.09,1.983-3.157,2.953c-0.754,0.684-1.531,1.334-2.328,1.965l-1.528,1.154l-1.258,0.869l-0.945,0.724l-2.586,1.752
		c-1.579,0.979-3.095,2.081-4.711,2.997c-0.636,0.363-1.293,0.692-1.937,1.046c-0.49,0.269-1.299,0.619-1.558,1.136
		c-0.157,0.312-0.16,0.807,0.13,1.054C120.754,81.4,121.159,81.32,121.584,81.132"/>
</g>
<g>
	<defs>
		<rect id="SVGID_13_" x="-100.499" y="-102.492" width="367.985" height="369.992"/>
	</defs>
	<clipPath id="SVGID_14_">
		<use xlink:href="#SVGID_13_"  overflow="visible"/>
	</clipPath>
	<path clip-path="url(#SVGID_14_)" fill="#FFFFFF" d="M48.259,82.94c-0.073,0.45,0.231,0.85,0.382,1.25
		c0.143,0.385,0.207,0.8,0.208,1.209c0.002,0.957-0.323,1.919-0.893,2.682c-1.149,1.548-4.086,2.465-5.702,1.179
		c-1.243-0.988-0.942-2.848,0.51-3.445c0.628-0.259,1.349-0.272,2.012-0.183c0.37,0.052,1.107,0.444,1.429,0.149
		c0.886-0.808-1.119-1.112-1.496-1.197c-0.49-0.106-0.99-0.188-1.493-0.168c-1.223,0.042-2.238,0.731-2.748,1.85
		c-0.719,1.594-0.313,3.094,1.04,4.14c0.651,0.502,1.942,1.006,2.773,1.006c1.214,0,2.098-0.278,3.201-0.793
		c1.352-0.634,2.13-1.977,2.486-3.383C50.277,86.007,50.213,82.787,48.259,82.94"/>
</g>
<g>
	<defs>
		<rect id="SVGID_15_" x="-100.499" y="-102.492" width="367.985" height="369.992"/>
	</defs>
	<clipPath id="SVGID_16_">
		<use xlink:href="#SVGID_15_"  overflow="visible"/>
	</clipPath>
	<path clip-path="url(#SVGID_16_)" fill="#FFFFFF" d="M59.48,74.215c0.134-0.149,0.295-0.241,0.469-0.149
		c0.312,0.163,0.066,0.665,0.001,0.895c-0.2,0.688-0.464,1.359-0.24,2.077c0.2,0.626,0.841,1.081,1.441,1.251
		c1.667,0.469,3.454,0.626,5.164,0.324c0.493-0.087,0.983-0.223,1.452-0.4c0.462-0.174,0.896-0.423,1.33-0.655
		c1.041-0.688,1.973-1.48,2.243-2.772c0.216-1.042-0.625-1.963-1.63-2.034c-0.628-0.045-1.33-0.107-1.936,0.102
		c-0.325,0.111-0.919,0.117-0.912,0.604c-0.58,0.281-0.767-0.733-0.634-1.116c0.192-0.548,0.826-0.876,1.359-0.982
		c0.722-0.144,1.528-0.182,2.263-0.176c1.424,0.012,2.537,1.59,2.596,2.916c0.017,0.4-0.03,0.846-0.132,1.233
		c-0.101,0.378-0.24,0.776-0.422,1.125c-0.864,1.651-2.375,2.82-4.107,3.441c-0.993,0.356-2.052,0.576-3.103,0.652
		c-1.461,0.104-3.336-0.13-4.467-1.145c-0.579-0.519-1.187-1.222-1.347-2.005c-0.079-0.385-0.053-0.782-0.055-1.173
		c-0.004-0.534,0.097-0.984,0.331-1.463C59.209,74.634,59.328,74.388,59.48,74.215"/>
</g>
<g>
	<defs>
		<rect id="SVGID_17_" x="-100.499" y="-102.492" width="367.985" height="369.992"/>
	</defs>
	<clipPath id="SVGID_18_">
		<use xlink:href="#SVGID_17_"  overflow="visible"/>
	</clipPath>
	<path clip-path="url(#SVGID_18_)" fill="#FFFFFF" d="M71.949,51.098c-0.959-1.274-2.928-0.775-4.239-0.513
		c-1.651,0.335-3.748,1.044-4.727,2.526c-0.296,0.447-0.458,1.036-0.524,1.562c-0.114,0.909-0.075,1.88-0.028,2.794
		c0.045,0.894,0.248,1.823,0.869,2.507c0.723,0.793,2.194,1.349,3.241,1.027c0.296-0.091,1.497-0.931,0.783-1.224
		c-0.264-0.108-0.689,0.091-0.943,0.16c-0.38,0.099-0.771,0.178-1.162,0.078c-0.761-0.197-1.331-0.976-1.701-1.629
		c-0.656-1.156-0.669-2.745,0.076-3.848c0.723-1.075,1.806-1.833,2.986-2.327c0.938-0.39,1.977-0.499,2.981-0.358l2.645-0.379
		C72.124,51.347,72.04,51.219,71.949,51.098"/>
</g>
<g>
	<defs>
		<rect id="SVGID_19_" x="-100.499" y="-102.492" width="367.985" height="369.992"/>
	</defs>
	<clipPath id="SVGID_20_">
		<use xlink:href="#SVGID_19_"  overflow="visible"/>
	</clipPath>
	<path clip-path="url(#SVGID_20_)" fill="#FFFFFF" d="M84.802,65.859c-0.046,0.334-0.131,0.965-0.148,1.038
		c-0.109,0.475-0.171,0.937-0.127,1.424c0.079,0.929,0.347,1.795,0.898,2.552c0.324,0.443,0.741,0.821,1.199,1.12
		c1.938,1.253,4.482,1.605,6.732,1.252c1.242-0.195,2.402-0.57,3.3-1.491c0.418-0.428,0.814-0.826,1.099-1.352
		c0.784-1.45,1.433-3.721,0.635-5.293c-0.587-1.147-1.869-2.025-3.188-1.846c-0.917,0.126-1.937,0.54-2.491,1.312
		c-0.336,0.473-0.482,1.033-0.587,1.595c-0.037,0.211-0.263,1.385-0.719,0.839c-0.345-0.414-0.253-1.389-0.212-1.875
		c0.137-1.532,1.03-2.415,2.288-3.169c1.259-0.753,2.52-1.041,3.771-0.102c1.04,0.778,1.893,1.949,2.33,3.177
		c0.407,1.147,0.482,2.396,0.275,3.594c-0.209,1.193-0.758,2.203-1.372,3.233c-0.377,0.636-0.83,1.202-1.315,1.76
		c-0.455,0.528-0.979,0.689-1.609,0.921c-0.322,0.118-0.648,0.232-0.977,0.336c-0.638,0.199-1.289,0.361-1.952,0.449
		c-1.187,0.16-2.4,0.086-3.554-0.241c-1.241-0.352-2.319-1.029-3.225-1.943c-0.796-0.804-1.704-1.705-2.075-2.802
		c-0.209-0.612-0.314-1.395-0.25-2.041c0.098-0.936,0.305-2.25,1.301-2.652C84.828,65.654,84.817,65.736,84.802,65.859"/>
</g>
<g>
	<defs>
		<rect id="SVGID_21_" x="-100.499" y="-102.492" width="367.985" height="369.992"/>
	</defs>
	<clipPath id="SVGID_22_">
		<use xlink:href="#SVGID_21_"  overflow="visible"/>
	</clipPath>
	<path clip-path="url(#SVGID_22_)" fill="#FFFFFF" d="M91.536,53.651c0.063-0.341,0.479-0.864,0.588-0.99
		c0.687-0.79,1.764-0.945,2.759-0.897c0.404,0.019,0.78,0.161,1.158,0.282c0.944,0.298,1.831,0.695,2.73,1.113
		c0.252,0.118,0.438,0.315,0.468,0.604c0.02,0.219-0.053,0.668-0.227,0.822c-0.305,0.263-1.043-0.269-1.304-0.396
		c-0.724-0.351-1.45-0.7-2.227-0.912c-0.75-0.202-1.453-0.427-2.223-0.253c-0.49,0.108-0.771,0.167-1.016,0.632
		c0.004-0.004,0.013-0.012,0.013-0.018c-0.16,0.187-0.355,0.414-0.623,0.28C91.536,53.871,91.514,53.773,91.536,53.651"/>
</g>
<g>
	<defs>
		<rect id="SVGID_23_" x="-100.499" y="-102.492" width="367.985" height="369.992"/>
	</defs>
	<clipPath id="SVGID_24_">
		<use xlink:href="#SVGID_23_"  overflow="visible"/>
	</clipPath>
	<path clip-path="url(#SVGID_24_)" fill="#FFFFFF" d="M116.53,53.561c-0.311,0.369-1.207,0.215-1.579,0.203
		c-0.685-0.023-1.239,0.137-1.867,0.416c-1.438,0.644-2.604,1.78-3.296,3.202c-0.457,0.942-0.695,2.068-0.317,3.081
		c0.859,2.317,3.51,2.763,5.533,1.716c0.666-0.343,2.073-1.578,1.585-2.467c-0.813-1.472-2.307,0.771-3.238,0.323
		c-0.434-0.207-0.507-0.89-0.396-1.311c0.152-0.592,1.287-1.018,1.791-1.087c0.798-0.112,1.734,0.085,2.36,0.611
		c1.236,1.038,0.687,3.053-0.078,4.227c-1.202,1.841-4.51,2.759-6.44,1.53c-2.235-1.422-3.105-5.574-1.937-7.86
		c1.196-2.354,4.501-3.775,7.019-3.227c0.279,0.06,1.135,0.203,0.898,0.591C116.556,53.527,116.545,53.546,116.53,53.561"/>
</g>
<g>
	<defs>
		<rect id="SVGID_25_" x="-100.499" y="-102.492" width="367.985" height="369.992"/>
	</defs>
	<clipPath id="SVGID_26_">
		<use xlink:href="#SVGID_25_"  overflow="visible"/>
	</clipPath>
	<path clip-path="url(#SVGID_26_)" fill="#986B2E" d="M23.428,97.744c-0.211-0.056-0.46-0.021-0.702,0.025
		c-0.895,0.167-3.027,1.446-3.76,1.959c-3.014,2.11-4.823,3.63-6.188,7.235c-0.43,1.136-1.342,3.511-0.075,4.414
		c1.002,0.718,2.63,0.457,3.765,0.322c2.837-0.33,5.689-0.875,8.503-1.429c0.818-0.163,1.634-0.332,2.449-0.509
		c2.69-0.585,5.387-1.178,8.048-1.888c3.393-0.904,6.814-1.69,10.203-2.617c2.706-0.742,5.408-1.496,8.092-2.319
		c0.778-0.236,1.553-0.479,2.326-0.724c1.939-0.612,3.929-1.046,5.873-1.637c1.987-0.604,3.942-1.297,5.904-1.976
		c2.512-0.871,5.054-1.652,7.553-2.565c2.721-0.998,5.419-2.061,8.129-3.091c0.77-0.294,1.539-0.587,2.304-0.889
		c2.102-0.823,4.16-1.738,6.248-2.594c1.514-0.62,3.023-1.245,4.539-1.865l2.488-1.168c2.555-1.285,5.138-2.514,7.696-3.791
		c2.731-1.367,5.471-2.71,8.146-4.184c2.331-1.285,4.614-2.67,6.909-4.024c2.559-1.509,5.049-3.21,7.521-4.86
		c2.478-1.655,4.888-3.376,7.18-5.285c2.738-2.281,5.396-4.683,8.013-7.105c0.729-0.675,1.435-1.375,2.085-2.125
		c1.164-1.345,2.829-3.332,2.597-5.264c-0.236-1.951-2.699-2.224-4.238-2.242c-3.044-0.039-6.113,0.678-9.006,1.585
		c-0.923,0.29-1.937,0.576-2.787,1.054c0.213-0.114,0.95,0.502,1.096,0.611c0.938,0.701,1.911,1.687,2.377,2.776
		c0.631,1.462,0.21,3.231-0.467,4.577c-0.682,1.346-1.591,2.571-2.667,3.622c-1.611,1.575-3.468,2.87-5.355,4.082
		c-2.249,1.441-4.457,2.873-6.814,4.132c-1.004,0.533-2.004,1.063-3.005,1.601c-0.587,0.314-1.173,0.623-1.766,0.921
		c-3.269,1.651-6.481,3.404-9.792,4.977c-0.938,0.447-1.88,0.889-2.825,1.327c-2.521,1.175-5.072,2.301-7.619,3.419
		c-2.597,1.142-5.219,2.214-7.857,3.252c-0.771,0.3-1.546,0.601-2.319,0.9c-1.015,0.396-2.03,0.77-3.059,1.134
		c-2.608,0.921-5.193,1.915-7.81,2.814c-0.956,0.328-1.914,0.65-2.863,0.99c-0.933,0.341-1.862,0.681-2.796,1.007
		c-0.97,0.342-1.937,0.694-2.912,1.022c-2.233,0.747-4.445,1.549-6.675,2.297c-3.779,1.267-7.503,2.667-11.322,3.807
		c-2.226,0.662-4.412,1.444-6.631,2.13c-3.366,1.032-6.817,2.041-10.315,2.49c-2.044,0.263-4.693,0.716-6.585-0.354
		c-0.492-0.278-0.984-0.758-1.256-1.257c-0.333-0.619-0.283-1.262-0.302-1.934c-0.017-0.541-0.003-1.017,0.115-1.548
		c0.056-0.262,0.16-0.588,0.042-0.847C23.758,97.907,23.605,97.793,23.428,97.744"/>
	<path clip-path="url(#SVGID_26_)" fill="#572F16" d="M133.389,51.365c-0.022-0.076,1.979-0.482,2.209-0.561
		c1.665-0.568,3.41-0.878,5.153-1.059c1.858-0.192,4.081-0.656,5.925-0.241c1.384,0.314,1.737,1.419,0.895,2.556
		c-0.71,0.957-1.455,1.89-2.315,2.717c-2.525,2.436-4.931,4.995-7.589,7.289c-1.191,1.028-2.431,1.997-3.709,2.909
		c-1.375,0.984-2.77,1.947-4.135,2.948c-2.493,1.825-5.092,3.571-7.773,5.097c-3.843,2.185-7.643,4.434-11.521,6.555
		c-1.12,0.611-2.239,1.222-3.356,1.83c-3.307,1.809-6.757,3.363-10.156,4.979c-1.501,0.714-3.01,1.424-4.543,2.059
		c-3.397,1.404-6.844,2.693-10.287,3.981c-1.152,0.434-2.305,0.878-3.458,1.315c-1.111,0.426-2.22,0.833-3.349,1.217
		c-1.225,0.418-2.45,0.848-3.681,1.251c-3.651,1.193-7.307,2.459-10.965,3.666c-3.641,1.203-7.305,2.331-10.993,3.373
		c-5.451,1.543-10.918,3.013-16.405,4.415c-1.592,0.406-3.182,0.806-4.775,1.197c-3.045,0.752-6.104,1.534-9.21,2.003
		c-1.584,0.237-5.25,1.015-6.318-0.756c-1.032-1.714,1.289-4.427,2.222-5.662c0.777-1.024,1.603-2.005,2.419-2.999
		c0.147-0.178,1.261-1.283,1.156-1.558c-0.102-0.267-3.073,2.657-3.307,2.918c-1.504,1.685-3.536,4.039-3.536,6.448
		c0.001,2.184,2.298,2.763,4.069,2.846c2.837,0.127,5.701-0.579,8.431-1.274c1.699-0.434,3.396-0.936,5.117-1.283l3.488-0.771
		l5.598-1.51l6.41-1.673c2.625-0.708,5.238-1.442,7.844-2.226c0.973-0.29,1.944-0.587,2.915-0.889
		c1.099-0.343,2.198-0.687,3.3-1.021c1.48-0.451,2.96-0.894,4.44-1.343c1.377-0.416,2.746-0.852,4.119-1.28
		c0.982-0.372,2.019-0.637,3.021-0.951c2.696-0.929,5.417-1.804,8.059-2.874c1.148-0.464,2.29-0.942,3.438-1.402
		c0.934-0.368,1.872-0.716,2.809-1.074c1.407-0.539,2.813-1.084,4.222-1.623c1.24-0.475,2.444-1.04,3.662-1.57l3.126-1.369
		l7.383-3.343l4.463-2.285l5.274-2.734l4.421-2.487l5.6-3.223l4.703-3.182l4.262-2.937l3.528-2.651l3.164-2.569l2.15-1.958
		l2.758-2.488l2.475-2.407l1.42-1.549l0.771-1.184l0.647-1.386c0.195-0.755,0.506-1.532,0.216-2.303
		c-0.331-0.871-1.208-1.442-2.114-1.516c-2.359-0.188-4.958-0.025-7.274,0.46c-1.621,0.338-3.203,0.802-4.807,1.21
		c-1.109,0.283-2.255,0.973-3.388,1.077c-0.153,0.016-0.307,0.012-0.452,0.036c0.068-0.012,0.86,0.432,1.01,0.487
		C132.646,51.17,133.188,50.992,133.389,51.365"/>
</g>
<g>
	<defs>
		<rect id="SVGID_27_" x="-100.499" y="-102.492" width="367.985" height="369.992"/>
	</defs>
	<clipPath id="SVGID_28_">
		<use xlink:href="#SVGID_27_"  overflow="visible"/>
	</clipPath>
	<path clip-path="url(#SVGID_28_)" fill="#A3B83A" d="M46.088,82.774c-0.082,0.502,0.258,0.948,0.426,1.394
		c0.161,0.43,0.231,0.892,0.233,1.35c0.003,1.067-0.36,2.14-0.996,2.991c-1.284,1.726-4.56,2.75-6.362,1.316
		c-1.385-1.106-1.05-3.18,0.569-3.846c0.699-0.288,1.505-0.307,2.244-0.202c0.414,0.058,1.237,0.492,1.596,0.168
		c0.988-0.904-1.247-1.244-1.67-1.337c-0.544-0.12-1.104-0.211-1.665-0.189c-1.364,0.048-2.498,0.815-3.063,2.065
		c-0.804,1.776-0.351,3.449,1.158,4.615c0.726,0.562,2.167,1.124,3.094,1.124c1.354,0,2.339-0.313,3.569-0.888
		c1.51-0.702,2.376-2.202,2.774-3.771C48.341,86.195,48.269,82.604,46.088,82.774"/>
</g>
<g>
	<defs>
		<rect id="SVGID_29_" x="-100.499" y="-102.492" width="367.985" height="369.992"/>
	</defs>
	<clipPath id="SVGID_30_">
		<use xlink:href="#SVGID_29_"  overflow="visible"/>
	</clipPath>
	<path clip-path="url(#SVGID_30_)" fill="#A3B83A" d="M57.726,73.817c0.135-0.149,0.294-0.24,0.467-0.149
		c0.314,0.165,0.066,0.665,0.001,0.895c-0.199,0.689-0.462,1.36-0.238,2.076c0.198,0.629,0.839,1.082,1.44,1.251
		c1.667,0.47,3.453,0.626,5.163,0.323c0.493-0.086,0.984-0.222,1.453-0.398c0.463-0.174,0.894-0.424,1.33-0.654
		c1.04-0.689,1.974-1.48,2.243-2.773c0.217-1.043-0.625-1.965-1.629-2.035c-0.628-0.044-1.331-0.108-1.937,0.102
		c-0.326,0.112-0.919,0.118-0.912,0.605c-0.579,0.281-0.769-0.732-0.634-1.116c0.192-0.548,0.827-0.877,1.36-0.982
		c0.721-0.144,1.527-0.18,2.262-0.175c1.423,0.012,2.537,1.59,2.596,2.915c0.017,0.402-0.03,0.848-0.132,1.234
		c-0.101,0.377-0.241,0.775-0.422,1.123c-0.864,1.655-2.374,2.823-4.107,3.442c-0.994,0.357-2.053,0.578-3.102,0.652
		c-1.463,0.105-3.338-0.128-4.469-1.144c-0.577-0.521-1.187-1.224-1.347-2.005c-0.079-0.386-0.052-0.782-0.054-1.175
		c-0.003-0.534,0.096-0.985,0.331-1.462C57.455,74.236,57.573,73.989,57.726,73.817"/>
</g>
<g>
	<defs>
		<rect id="SVGID_31_" x="-100.499" y="-102.492" width="367.985" height="369.992"/>
	</defs>
	<clipPath id="SVGID_32_">
		<use xlink:href="#SVGID_31_"  overflow="visible"/>
	</clipPath>
	<path clip-path="url(#SVGID_32_)" fill="#A3B83A" d="M68.209,58.908c0.014-1.136,2.212-1.012,2.854-1.567
		c0.392-0.34,0.605-0.931,0.555-1.448c-0.062-0.621-0.552-0.906-1.096-1.077c-1.284-0.401-2.715-0.381-3.963,0.14
		c-1.182,0.492-2.263,1.251-2.986,2.325c-0.745,1.103-0.732,2.692-0.077,3.848c0.373,0.652,0.94,1.432,1.702,1.628
		c0.389,0.1,0.78,0.022,1.161-0.079c0.254-0.067,0.68-0.266,0.943-0.157c0.714,0.292-0.486,1.131-0.781,1.222
		c-1.048,0.321-2.518-0.231-3.242-1.025c-0.621-0.686-0.823-1.614-0.87-2.508c-0.046-0.914-0.084-1.886,0.03-2.794
		c0.066-0.525,0.228-1.115,0.523-1.562c0.981-1.483,3.077-2.192,4.728-2.525c1.312-0.265,3.279-0.761,4.239,0.51
		c0.459,0.611,0.84,1.35,0.866,2.128c0.028,0.938-0.47,1.798-1.078,2.472c-0.564,0.625-1.344,1.259-2.211,1.335
		c-0.512,0.046-1.258-0.179-1.294-0.8C68.209,58.95,68.208,58.928,68.209,58.908"/>
</g>
<g>
	<defs>
		<rect id="SVGID_33_" x="-100.499" y="-102.492" width="367.985" height="369.992"/>
	</defs>
	<clipPath id="SVGID_34_">
		<use xlink:href="#SVGID_33_"  overflow="visible"/>
	</clipPath>
	<path clip-path="url(#SVGID_34_)" fill="#A3B83A" d="M82.638,65.81c-0.047,0.334-0.132,0.966-0.149,1.037
		c-0.108,0.475-0.171,0.937-0.128,1.424c0.082,0.928,0.35,1.795,0.901,2.553c0.321,0.442,0.739,0.82,1.198,1.118
		c1.938,1.254,4.481,1.607,6.732,1.253c1.241-0.195,2.402-0.571,3.3-1.491c0.416-0.426,0.814-0.826,1.099-1.352
		c0.784-1.451,1.434-3.72,0.633-5.291c-0.586-1.148-1.867-2.028-3.188-1.847c-0.916,0.126-1.936,0.54-2.49,1.313
		c-0.335,0.472-0.481,1.032-0.589,1.594c-0.036,0.211-0.264,1.387-0.716,0.84c-0.346-0.415-0.253-1.391-0.211-1.876
		c0.135-1.533,1.027-2.416,2.285-3.167c1.26-0.755,2.518-1.042,3.771-0.103c1.039,0.778,1.894,1.95,2.331,3.176
		c0.408,1.149,0.483,2.397,0.276,3.595c-0.21,1.192-0.761,2.204-1.372,3.232c-0.378,0.637-0.833,1.203-1.316,1.761
		c-0.455,0.526-0.979,0.688-1.607,0.92c-0.323,0.12-0.65,0.232-0.979,0.336c-0.637,0.2-1.29,0.359-1.953,0.45
		c-1.186,0.159-2.4,0.086-3.551-0.242c-1.243-0.352-2.321-1.028-3.226-1.941c-0.798-0.804-1.704-1.707-2.077-2.802
		c-0.208-0.612-0.314-1.396-0.249-2.042c0.096-0.934,0.305-2.25,1.303-2.65C82.666,65.606,82.653,65.688,82.638,65.81"/>
</g>
<g>
	<defs>
		<rect id="SVGID_35_" x="-100.499" y="-102.492" width="367.985" height="369.992"/>
	</defs>
	<clipPath id="SVGID_36_">
		<use xlink:href="#SVGID_35_"  overflow="visible"/>
	</clipPath>
	<path clip-path="url(#SVGID_36_)" fill="#A3B83A" d="M88.881,56.23c-0.084-0.336,0.074-0.988,0.12-1.145
		c0.294-1.008,1.206-1.603,2.133-1.981c0.373-0.15,0.775-0.182,1.169-0.232c0.983-0.126,1.952-0.138,2.939-0.138
		c0.282,0,0.532,0.099,0.68,0.351c0.107,0.19,0.231,0.626,0.14,0.841c-0.168,0.367-1.062,0.197-1.354,0.191
		c-0.799-0.013-1.608-0.025-2.399,0.112c-0.767,0.132-1.499,0.224-2.125,0.707c-0.399,0.304-0.628,0.476-0.66,1.001
		c0.003-0.005,0.009-0.013,0.007-0.02c-0.067,0.235-0.152,0.523-0.449,0.515C88.974,56.429,88.914,56.35,88.881,56.23"/>
</g>
<g>
	<defs>
		<rect id="SVGID_37_" x="-100.499" y="-102.492" width="367.985" height="369.992"/>
	</defs>
	<clipPath id="SVGID_38_">
		<use xlink:href="#SVGID_37_"  overflow="visible"/>
	</clipPath>
	<path clip-path="url(#SVGID_38_)" fill="#A3B83A" d="M114.613,53.918c-0.311,0.369-1.208,0.214-1.579,0.203
		c-0.686-0.022-1.242,0.135-1.868,0.416c-1.436,0.642-2.604,1.779-3.294,3.2c-0.458,0.945-0.696,2.071-0.318,3.083
		c0.859,2.318,3.512,2.762,5.535,1.717c0.664-0.344,2.069-1.578,1.58-2.467c-0.81-1.473-2.303,0.77-3.236,0.322
		c-0.435-0.208-0.506-0.889-0.398-1.311c0.155-0.591,1.288-1.019,1.795-1.089c0.794-0.11,1.734,0.087,2.358,0.613
		c1.235,1.039,0.688,3.054-0.077,4.227c-1.203,1.84-4.511,2.759-6.443,1.531c-2.233-1.424-3.099-5.574-1.935-7.862
		c1.198-2.353,4.502-3.776,7.019-3.226c0.281,0.06,1.137,0.203,0.896,0.591C114.637,53.886,114.626,53.903,114.613,53.918"/>
</g>
<g>
	<defs>
		<rect id="SVGID_39_" x="-100.499" y="-102.492" width="367.985" height="369.992"/>
	</defs>
	<clipPath id="SVGID_40_">
		<use xlink:href="#SVGID_39_"  overflow="visible"/>
	</clipPath>
	<path clip-path="url(#SVGID_40_)" fill="#573215" d="M148.597,54.634c-0.138,0.057-0.302,0.197-0.381,0.285
		c-0.132,0.147-0.123,0.248-0.23,0.411c-0.231,0.344-0.404,0.733-0.561,1.115c-0.089,0.213-0.177,0.428-0.265,0.642
		c-0.488,1.169-0.968,2.376-1.108,3.645c-0.162,1.417-0.022,2.854-0.099,4.276c-0.074,1.416-0.19,2.835-0.32,4.245
		c-0.232,2.487-0.945,5.197-2.504,7.195c-1.88,2.404-4.436,4.076-6.986,5.675c-0.795,0.5-1.591,1.002-2.35,1.554
		c-1.17,0.849-2.376,1.577-3.596,2.343c-1.66,1.042-3.32,2.081-5.014,3.063c-0.902,0.523-1.808,1.038-2.701,1.57
		c-0.971,0.58-1.945,1.156-2.919,1.731c-2.036,1.203-4.107,2.348-6.178,3.483c-0.611,0.335-1.22,0.668-1.827,1.001
		c-0.981,0.535-1.955,1.051-2.96,1.53c-0.911,0.431-1.801,0.883-2.699,1.332c-0.821,0.413-1.654,0.805-2.465,1.239
		c-1.967,1.054-3.95,2.084-5.976,3.022c-0.595,0.273-1.194,0.538-1.801,0.787c-1.992,0.824-3.97,1.685-5.911,2.625
		c-2.84,1.375-5.727,2.642-8.675,3.76c-0.844,0.319-1.691,0.635-2.535,0.951c-1.003,0.378-2.007,0.735-3.02,1.088
		c-1.063,0.371-2.107,0.796-3.152,1.213l-2.65,0.814l-3.192,1.033l-2.677,0.788l-2.704,0.762l-2.652,0.791l-2.73,0.761
		c-1.625,0.345-3.253,0.681-4.871,1.059c-0.872,0.202-1.739,0.414-2.612,0.616c-1.031,0.238-2.066,0.461-3.119,0.575
		c-0.793,0.085-1.593,0.176-2.39,0.198c-0.996,0.026-1.995,0-2.993,0c-0.813,0-1.615-0.174-2.405-0.35
		c-0.751-0.164-1.502-0.354-2.148-0.793c-0.837-0.57-1.575-1.216-2.289-1.932l-1.678-1.522l-1.053-0.735
		c-1.177-0.768-2.385-1.369-3.677-1.92c-1.925-0.816-3.999-1.132-6.036-1.529c-0.507-0.1-0.646,0.027-0.646,0.54l0.38,0.243
		c0,0,0.188,0.056,0.486,0.056c1.083,0,2.164,0.222,3.2,0.521c0.736,0.212,1.446,0.467,2.15,0.771
		c0.706,0.305,1.395,0.574,2.038,0.999c0.611,0.409,1.234,0.812,1.803,1.276c1.491,1.222,2.935,2.502,4.518,3.606
		c1.293,0.904,2.747,1.284,4.277,1.561c0.809,0.147,1.585,0.239,2.405,0.239h0.811h1c1.791,0,3.565-0.006,5.325-0.388
		c1.529-0.336,3.028-0.735,4.527-1.18c0.991-0.297,2.023-0.436,3.028-0.68c2.018-0.494,4.025-1.045,6.035-1.582
		c1.229-0.327,2.444-0.718,3.664-1.081c1.635-0.483,3.266-0.986,4.901-1.479l5.517-1.796l3.598-1.441l5.867-2.283l7.413-3.264
		l6.382-3.045l6.166-3.018l8.438-4.324l4.271-2.477l6.142-3.507l4.542-2.662l4.516-2.774l2.408-1.823l2.489-1.685
		c1.882-1.289,3.767-2.905,5.18-4.702c1.174-1.492,1.945-3.223,2.345-5.077c0.844-3.905,0.513-9.35,1.424-13.254
		c0.163-0.693,0.484-1.33,0.871-1.92c0.34-0.521,0.56-1.11,0.934-1.612c0.553-0.737,0.029-1.245-0.076-1.245
		C148.784,54.544,148.632,54.62,148.597,54.634"/>
</g>
<g>
	<defs>
		<rect id="SVGID_41_" x="-100.499" y="-102.492" width="367.985" height="369.992"/>
	</defs>
	<clipPath id="SVGID_42_">
		<use xlink:href="#SVGID_41_"  overflow="visible"/>
	</clipPath>
	<path clip-path="url(#SVGID_42_)" fill="#572F16" d="M25.557,94.925c0.551-0.65,1.166-1.25,1.761-1.787
		c0.857-0.781,1.782-1.498,2.695-2.212c0.751-0.589,1.529-1.147,2.28-1.735l0.595-0.465l0.568-0.515l0.567-0.542
		c1.193-1.142,2.211-2.401,2.687-4.016c0.428-1.455,0.589-2.927,0.796-4.417c0.441-3.151,2.31-5.348,4.871-7.049
		c1.909-1.269,4.133-2.022,5.905-3.506c0.494-0.413,1.137-0.818,1.482-1.38l0.405-0.653l0.298-0.544l0.162-0.517l0.108-0.871v-0.733
		v-0.708v-0.733c0-0.719,0.01-1.501,0.333-2.161c0.348-0.711,1.002-1.027,1.669-1.375l0.461-0.245l0.566-0.163l0.623-0.135
		l0.54-0.164c1.628-0.629,3.082-1.479,3.96-3.057c0.261-0.468,0.336-1.021,0.448-1.54v-0.87v-0.679v-0.625l0.136-0.518l0.162-0.543
		l0.163-0.407l0.243-0.491l0.298-0.38l0.31-0.19l0.189-0.109l0.311-0.081h0.338c0.49,0,0.973-0.019,1.428,0.199
		c0.215,0.104,0.578,0.368,0.828,0.202c0.262-0.172,0.133-0.496-0.068-0.667c-0.398-0.348-1.241-0.348-1.74-0.348h-0.231h-0.176
		h-0.23l-0.243,0.056l-0.298,0.19l-0.27,0.177l-0.189,0.216l-0.244,0.272l-0.162,0.245l-0.136,0.216l-0.121,0.205
		c-0.598,1.292-0.301,2.687-0.622,3.983c-0.391,1.57-1.371,2.608-2.854,3.196l-0.596,0.259l-0.661,0.217l-0.528,0.164l-0.526,0.163
		l-0.393,0.148l-0.379,0.136l-0.513,0.259l-0.514,0.257l-0.473,0.326c-1.16,1.307-1.456,2.639-1.38,4.373
		c0.066,1.51,0.008,2.603-1.115,3.696c-1.459,1.421-3.219,2.457-5.009,3.393c-0.562,0.294-1.114,0.606-1.664,0.925
		c0,0-0.632,0.396-0.65,0.407c-1.371,0.863-2.384,1.834-3.221,3.244c-0.874,1.47-1.248,3.188-1.452,4.877
		c-0.139,1.167-0.302,2.316-0.806,3.387c-0.366,0.773-0.693,1.481-1.227,2.159l-0.312,0.405l-0.379,0.492l-0.391,0.38
		c0,0-0.57,0.558-0.583,0.57c-1.252,1.229-2.793,2.2-4.18,3.28c-1.078,0.843-2.044,1.813-2.997,2.793
		c-1.696,1.742-3.205,4.041-3.227,6.562c-0.019,2.161,1.166,4.123,3.312,4.676c1.297,0.334,3.129,0.359,4.401,0.036
		c1.982-0.371,3.919-0.93,5.865-1.45c5.587-1.498,11.127-3.081,16.622-4.889c1.582-0.521,3.163-1.047,4.743-1.563
		c2.303-0.752,4.591-1.523,6.876-2.334c4.835-1.713,9.675-3.423,14.506-5.149c1.392-0.498,2.782-0.99,4.172-1.482
		c1.141-0.403,2.279-0.815,3.414-1.226c2.232-0.889,4.442-1.829,6.681-2.693l2.463-0.951l2.325-1.087l2.464-1.115l2.784-1.224
		c0,0,1.705-0.75,1.73-0.761c2.095-0.922,4.077-2.098,6.126-3.115c0.98-0.484,1.956-0.972,2.937-1.453l2.296-1.199l2.057-1.032
		l2.405-1.278l1.73-1.006l1.49-0.898l1.298-0.816l1.595-1.005l2.056-1.387l1.459-1.06l1.408-1.033l0.975-0.87
		c0,0,0.943-0.923,0.944-0.925c1.587-1.55,2.972-3.549,3.217-5.807c0.234-2.169-0.627-4.356-2.671-5.301
		c-1.104-0.511-2.461-0.716-3.668-0.749l-1.421-0.042c-1.707,0-3.384,0.254-4.991,0.815l-0.61,0.083l-0.524-0.083l-0.649-0.284
		l-0.649-0.328l-0.729-0.652l-0.689-0.57l-0.771-0.652l-0.568-0.49c0,0-0.646-0.447-0.647-0.449c-2.33-1.611-5.057-1.42-7.643-0.805
		c-1.584,0.376-3.05,1.268-4.623,1.563c-1.43,0.269-2.771-0.17-3.896-1.06c-0.649-0.512-1.223-1.325-2.041-1.555
		c-0.83-0.232-1.816-0.268-2.667-0.338c-2.041-0.168-4.031,0.249-5.911,1.039c-1.678,0.706-3.16,1.765-4.801,2.532
		c-0.632,0.296-1.281,0.434-1.863,0.84c-0.842,0.585-1.618,1.185-2.684,0.759c-1.637-0.655-2.72-2.307-4.328-3.064
		c-1.87-0.881-3.75-0.306-5.709-0.44c-1.866-0.125-3.341-1.404-3.651-3.283c-0.265-1.606,0.593-2.615,2.149-2.791
		c0.756-0.085,2.612,0.131,2.734-0.985c0.137-1.254-1.682-1.982-2.618-2.155c-1.778-0.329-3.75,0.152-5.268,1.116
		c-1.731,1.099-2.636,2.866-2.794,4.893c-0.083,1.076,0.003,2.157,0.085,3.23c0.131,0.009,0.27-0.001,0.402-0.027
		c-0.008-1.415-0.05-2.838,0.322-4.216c0.574-2.129,2.357-3.367,4.435-3.84c1.088-0.25,1.899-0.175,2.685,0.672
		c-1.253,0.601-2.784,1.308-2.935,2.879c-0.15,1.546,0.801,3.278,1.82,4.367c2.465,2.635,6.152,0.317,8.967,2.182
		c1.306,0.863,2.333,2.418,3.942,2.729c1.751,0.338,3.442-0.965,4.837-1.83c1.532-0.948,3.083-1.63,4.8-2.148
		c1.664-0.501,3.357-1.226,5.088-1.447c1.816-0.232,3.136,0.621,4.372,1.869c0.934,0.939,1.888,2.094,3.347,1.729
		c0.686-0.172,1.39-0.478,2.045-0.742l0.813-0.327l1.094-0.449l0.893-0.326l0.934-0.245l0.853-0.204c0,0,1.339-0.245,1.34-0.245
		c1.318-0.242,2.845,0.187,4.138,0.531l0.812,0.325c0,0,0.527,0.286,0.729,0.45c0.203,0.163,0.568,0.408,0.811,0.611
		c0.247,0.204,0.284,0.245,0.487,0.448c0.204,0.204,0.447,0.41,0.688,0.653c0.882,0.889,1.917,1.704,3.202,1.827
		c1.412,0.137,2.791-0.563,4.173-0.725c1.652-0.194,3.331-0.164,4.964,0.169c1.281,0.266,2.829,1.212,3.274,2.533
		c0.518,1.538-0.11,2.992-0.927,4.284c-1.452,2.292-3.089,4.039-5.354,5.535l-1.42,0.937l-2.272,1.551l-3.854,2.285l-2.517,1.469
		l-4.259,2.364l-4.667,2.367l-3.242,1.51c-3.911,1.933-7.743,3.841-11.805,5.423c-3.13,1.465-6.312,2.768-9.535,3.998l-7.384,2.732
		l-6.044,2.281l-8.48,2.9l-6.449,2.242l-2.636,0.898l-4.747,1.51c0,0-4.896,1.561-4.989,1.59c-2.367,0.755-4.767,1.456-7.18,2.055
		c-1.956,0.487-3.908,1.087-5.877,1.502c-1.587,0.331-3.185,0.543-4.793,0.727c-1.396,0.16-3.386-0.509-4.137-1.74
		c-0.641-1.047-0.436-2.849-0.173-3.996C24.076,96.959,24.747,95.882,25.557,94.925"/>
</g>
<g>
	<path fill="#502D8B" d="M138.548,87.791h-0.809v-0.572h2.3v0.572h-0.816v2.441h-0.675V87.791z"/>
	<path fill="#502D8B" d="M142.916,89.079c-0.014-0.362-0.026-0.801-0.026-1.238h-0.01c-0.098,0.384-0.222,0.813-0.337,1.167
		l-0.364,1.176h-0.528l-0.319-1.163c-0.098-0.357-0.195-0.786-0.271-1.18h-0.009c-0.014,0.406-0.031,0.871-0.049,1.247l-0.058,1.145
		h-0.626l0.19-3.014h0.901l0.294,1.006c0.098,0.35,0.186,0.725,0.253,1.078h0.018c0.08-0.349,0.182-0.747,0.284-1.082l0.315-1.002
		h0.888l0.16,3.014h-0.657L142.916,89.079z"/>
</g>
<polygon fill="#76471E" points="26.571,129.865 31.34,138.618 26.571,147.779 139.308,147.779 135.175,138.723 139.308,129.865 "/>
<polygon fill="#F6F4C0" points="137.701,130.797 28.24,130.797 32.565,138.636 28.178,146.775 137.701,146.775 133.937,138.731 "/>
<g>
	<path fill="#A1B93B" d="M35.063,134.996h0.971v3.625h0.033c0.201-0.29,0.401-0.558,0.591-0.804l2.298-2.821h1.205l-2.722,3.189
		l2.934,4.328h-1.149l-2.465-3.692l-0.725,0.826v2.866h-0.971V134.996z"/>
	<path fill="#A1B93B" d="M44.995,138.989h-2.911v2.71h3.257v0.814h-4.239v-7.518h4.071v0.813h-3.089v2.376h2.911V138.989z"/>
	<path fill="#A1B93B" d="M48.311,142.514v-3.19l-2.387-4.327h1.115l1.06,2.074c0.279,0.569,0.513,1.026,0.747,1.551h0.022
		c0.201-0.491,0.468-0.981,0.758-1.551l1.082-2.074h1.093l-2.51,4.316v3.201H48.311z"/>
	<path fill="#A1B93B" d="M55.031,134.996h0.982v6.703h3.212v0.814h-4.194V134.996z"/>
	<path fill="#A1B93B" d="M61.281,134.996v7.518h-0.982v-7.518H61.281z"/>
	<path fill="#A1B93B" d="M69.313,139.212c-0.056-1.049-0.123-2.32-0.123-3.246h-0.022c-0.268,0.87-0.569,1.818-0.948,2.855
		l-1.328,3.647h-0.736l-1.227-3.58c-0.357-1.071-0.647-2.03-0.859-2.923h-0.022c-0.022,0.938-0.078,2.187-0.145,3.324l-0.201,3.224
		h-0.926l0.524-7.518h1.238l1.283,3.636c0.313,0.926,0.558,1.751,0.759,2.532h0.022c0.201-0.759,0.469-1.584,0.803-2.532
		l1.338-3.636h1.238l0.468,7.518h-0.959L69.313,139.212z"/>
	<path fill="#A1B93B" d="M75.833,138.989h-2.911v2.71h3.257v0.814H71.94v-7.518h4.071v0.813h-3.089v2.376h2.911V138.989z"/>
</g>
<text transform="matrix(1 0 0 1 76.5957 142.5137)" fill="#010101" font-family="'MyriadPro-Regular'" font-size="11.1614"> </text>
<g>
	<path fill="#728839" d="M80.682,134.631c0.688-0.118,1.437-0.178,2.22-0.178c1.247,0,2.232,0.285,2.909,0.866
		c0.652,0.534,1.057,1.318,1.057,2.505c0,1.556-0.653,2.885-1.639,3.681c-0.926,0.748-2.102,1.068-3.834,1.068
		c-0.961,0-1.792-0.083-2.196-0.154L80.682,134.631z M81.168,141.148c0.202,0.023,0.451,0.035,0.748,0.035
		c0.927,0,1.745-0.32,2.268-0.926c0.546-0.617,0.831-1.46,0.831-2.422c0-1.27-0.7-2.018-2.113-2.018
		c-0.297,0-0.546,0.023-0.724,0.06L81.168,141.148z"/>
	<path fill="#728839" d="M88.775,134.655c0.534-0.131,1.341-0.202,2.137-0.202c0.76,0,1.543,0.106,2.102,0.463
		c0.521,0.309,0.89,0.819,0.89,1.555c0,1.188-0.783,1.936-1.816,2.268v0.036c0.476,0.214,0.688,0.735,0.76,1.46
		c0.107,0.902,0.167,1.947,0.309,2.279h-1.757c-0.071-0.214-0.154-0.902-0.226-1.888c-0.083-0.974-0.415-1.271-1.092-1.271h-0.522
		l-0.594,3.158h-1.686L88.775,134.655z M89.82,138.074h0.7c0.926,0,1.603-0.559,1.603-1.342c0-0.653-0.534-0.938-1.223-0.938
		c-0.32,0-0.522,0.023-0.665,0.059L89.82,138.074z"/>
	<path fill="#728839" d="M99.385,139.118h-2.837l-0.368,1.936h3.193l-0.272,1.46h-4.915l1.52-8.001h4.736l-0.284,1.46h-3.016
		l-0.333,1.709h2.861L99.385,139.118z"/>
	<path fill="#728839" d="M102.528,140.437l-0.938,2.077h-1.828l3.894-8.001h2.196l0.938,8.001h-1.805l-0.154-2.077H102.528z
		 M104.76,139.13l-0.166-1.721c-0.023-0.439-0.071-1.08-0.106-1.567h-0.024c-0.201,0.487-0.427,1.104-0.641,1.567l-0.795,1.721
		H104.76z"/>
	<path fill="#728839" d="M114.337,142.514l0.486-3.3c0.131-0.867,0.309-1.971,0.534-3.123h-0.035
		c-0.439,1.033-0.938,2.138-1.377,3.016l-1.639,3.276h-1.329l-0.285-3.24c-0.071-0.879-0.131-1.982-0.178-3.052h-0.024
		c-0.226,1.057-0.463,2.256-0.664,3.123l-0.796,3.3h-1.567l2.007-8.001h2.291l0.249,3.039c0.048,0.748,0.131,1.662,0.143,2.552
		h0.048c0.309-0.89,0.735-1.828,1.08-2.552l1.484-3.039h2.314l-1.08,8.001H114.337z"/>
</g>
<g>
	<path fill="#97B23C" d="M118.826,135.085c0.469-0.078,1.082-0.145,1.863-0.145c0.959,0,1.661,0.223,2.107,0.624
		c0.401,0.357,0.658,0.903,0.658,1.573c0,0.68-0.2,1.216-0.58,1.605c-0.524,0.547-1.35,0.826-2.298,0.826
		c-0.29,0-0.558-0.012-0.78-0.067v3.012h-0.971V135.085z M119.797,138.71c0.212,0.056,0.479,0.078,0.803,0.078
		c1.171,0,1.885-0.58,1.885-1.595c0-1.004-0.714-1.483-1.773-1.483c-0.424,0-0.747,0.033-0.914,0.078V138.71z"/>
	<path fill="#97B23C" d="M125.734,134.996v7.518h-0.981v-7.518H125.734z"/>
	<path fill="#97B23C" d="M131.313,138.989h-2.911v2.71h3.257v0.814h-4.238v-7.518h4.071v0.813h-3.09v2.376h2.911V138.989z"/>
</g>
</svg>
